<?xml version="1.0" encoding="UTF-8" standalone="no" ?>
<!DOCTYPE svg PUBLIC "-//W3C//DTD SVG 1.1//EN" "http://www.w3.org/Graphics/SVG/1.1/DTD/svg11.dtd">
<svg xmlns="http://www.w3.org/2000/svg" xmlns:xlink="http://www.w3.org/1999/xlink" version="1.1" width="562" height="73" viewBox="0 0 562 73" xml:space="preserve">
<desc>Created with Fabric.js 5.2.4</desc>
<defs>
</defs>
<g transform="matrix(1 0 0 1 281 36.5)" id="97ff14c6-8806-44f2-9790-84d2c319d592"  >
<rect style="stroke: none; stroke-width: 1; stroke-dasharray: none; stroke-linecap: butt; stroke-dashoffset: 0; stroke-linejoin: miter; stroke-miterlimit: 4; fill: rgb(255,255,255); fill-rule: nonzero; opacity: 1; visibility: hidden;" vector-effect="non-scaling-stroke"  x="-281" y="-36.5" rx="0" ry="0" width="562" height="73" />
</g>
<g transform="matrix(Infinity NaN NaN Infinity 0 0)" id="610f63b8-3484-4d57-892a-2395ce4d1acb"  >
</g>
<g transform="matrix(0.29 0 0 0.29 281 36.5)"  >
<g style="" vector-effect="non-scaling-stroke"   >
		<g transform="matrix(3.33 0 0 3.33 -4.95 0)"  >
<path style="stroke: rgb(255,255,255); stroke-width: 1.673; stroke-dasharray: none; stroke-linecap: butt; stroke-dashoffset: 0; stroke-linejoin: miter; stroke-miterlimit: 4; fill: none; fill-rule: nonzero; opacity: 1;" vector-effect="non-scaling-stroke"  transform=" translate(-279.47, -39.7)" d="M 279.470033 9.999581 L 279.470033 69.407533" stroke-linecap="round" />
</g>
		<g transform="matrix(1.33 0 0 1.33 -829.52 -1.85)"  >
<path style="stroke: none; stroke-width: 1; stroke-dasharray: none; stroke-linecap: butt; stroke-dashoffset: 0; stroke-linejoin: miter; stroke-miterlimit: 4; fill: rgb(255,43,43); fill-rule: nonzero; opacity: 1;" vector-effect="non-scaling-stroke"  transform=" translate(-106.65, -411.45)" d="M 117.683594 414.460938 L 94.589844 402.503906 L 54.515625 381.75 C 54.476562 381.714844 54.40625 381.714844 54.367188 381.714844 C 52.90625 381.035156 51.425781 382.503906 51.980469 383.953125 L 72.71875 435.582031 L 72.722656 435.59375 C 72.746094 435.644531 72.765625 435.695312 72.785156 435.746094 C 73.636719 437.667969 75.46875 438.847656 77.453125 439.300781 C 77.621094 439.335938 77.742188 439.371094 77.941406 439.410156 C 78.144531 439.453125 78.421875 439.507812 78.664062 439.527344 C 78.703125 439.53125 78.742188 439.527344 78.78125 439.53125 L 78.808594 439.53125 C 78.839844 439.535156 78.867188 439.535156 78.894531 439.539062 L 78.9375 439.539062 C 78.964844 439.542969 78.992188 439.542969 79.015625 439.542969 L 79.0625 439.542969 C 79.09375 439.542969 79.125 439.542969 79.152344 439.542969 C 104.933594 442.148438 130.917969 441.949219 156.65625 438.949219 C 156.960938 438.945312 157.265625 438.929688 157.558594 438.898438 C 157.652344 438.886719 157.742188 438.875 157.832031 438.863281 C 157.84375 438.859375 157.859375 438.859375 157.871094 438.855469 C 157.933594 438.847656 157.992188 438.835938 158.054688 438.824219 C 158.144531 438.8125 158.238281 438.792969 158.328125 438.773438 C 158.511719 438.734375 158.59375 438.703125 158.839844 438.617188 C 159.085938 438.53125 159.496094 438.378906 159.75 438.253906 C 160.007812 438.128906 160.183594 438.007812 160.398438 437.871094 C 160.664062 437.703125 160.914062 437.527344 161.167969 437.335938 C 161.277344 437.25 161.355469 437.195312 161.433594 437.117188 L 161.390625 437.09375 Z M 117.683594 414.460938" stroke-linecap="round" />
</g>
		<g transform="matrix(1.33 0 0 1.33 -755.96 -6.77)"  >
<path style="stroke: none; stroke-width: 1; stroke-dasharray: none; stroke-linecap: butt; stroke-dashoffset: 0; stroke-linejoin: miter; stroke-miterlimit: 4; fill: rgb(125,53,59); fill-rule: nonzero; opacity: 1;" vector-effect="non-scaling-stroke"  transform=" translate(-161.81, -407.76)" d="M 180.402344 380.78125 L 180.363281 380.785156 L 140.597656 402.152344 L 163.046875 434.980469 L 182.933594 382.945312 L 182.933594 382.875 C 183.429688 381.339844 181.855469 379.972656 180.402344 380.78125" stroke-linecap="round" />
</g>
		<g transform="matrix(1.33 0 0 1.33 -799.95 -12.28)"  >
<path style="stroke: none; stroke-width: 1; stroke-dasharray: none; stroke-linecap: butt; stroke-dashoffset: 0; stroke-linejoin: miter; stroke-miterlimit: 4; fill: rgb(189,64,67); fill-rule: nonzero; opacity: 1;" vector-effect="non-scaling-stroke"  transform=" translate(-128.82, -403.63)" d="M 119.476562 371.238281 C 118.441406 369.757812 116.222656 369.773438 115.25 371.269531 L 94.589844 402.503906 L 117.683594 414.460938 L 161.433594 437.117188 C 161.707031 436.847656 161.925781 436.585938 162.15625 436.308594 C 162.480469 435.902344 162.78125 435.464844 163.046875 434.980469 L 140.597656 402.152344 Z M 119.476562 371.238281" stroke-linecap="round" />
</g>
		<g transform="matrix(1.33 0 0 1.33 -430.52 -12.32)"  >
<path style="stroke: none; stroke-width: 1; stroke-dasharray: none; stroke-linecap: butt; stroke-dashoffset: 0; stroke-linejoin: miter; stroke-miterlimit: 4; fill: rgb(255,255,255); fill-rule: nonzero; opacity: 1;" vector-effect="non-scaling-stroke"  transform=" translate(-405.89, -403.6)" d="M 259.570312 388.007812 C 259.140625 384.621094 257.492188 382 254.617188 380.152344 C 251.746094 378.300781 248.230469 377.390625 244.074219 377.421875 C 241.039062 377.445312 238.382812 377.957031 236.113281 378.957031 C 233.863281 379.953125 232.109375 381.316406 230.851562 383.042969 C 229.613281 384.769531 229.003906 386.726562 229.019531 388.910156 C 229.035156 390.738281 229.480469 392.308594 230.363281 393.617188 C 231.265625 394.902344 232.414062 395.976562 233.804688 396.835938 C 235.195312 397.671875 236.65625 398.363281 238.175781 398.910156 C 239.699219 399.433594 241.097656 399.855469 242.375 400.179688 L 249.359375 402 C 251.148438 402.457031 253.144531 403.085938 255.339844 403.894531 C 257.554688 404.703125 259.675781 405.8125 261.695312 407.222656 C 263.738281 408.613281 265.429688 410.40625 266.765625 412.605469 C 268.097656 414.800781 268.777344 417.503906 268.804688 420.714844 C 268.832031 424.417969 267.886719 427.769531 265.96875 430.773438 C 264.070312 433.777344 261.273438 436.171875 257.578125 437.964844 C 253.90625 439.753906 249.433594 440.667969 244.164062 440.710938 C 239.246094 440.746094 234.988281 439.988281 231.378906 438.433594 C 227.792969 436.875 224.960938 434.691406 222.886719 431.875 C 220.828125 429.058594 219.652344 425.777344 219.355469 422.035156 L 227.933594 421.96875 C 228.175781 424.554688 229.066406 426.6875 230.597656 428.371094 C 232.152344 430.03125 234.105469 431.265625 236.457031 432.070312 C 238.832031 432.855469 241.378906 433.238281 244.105469 433.214844 C 247.277344 433.191406 250.121094 432.65625 252.636719 431.613281 C 255.152344 430.542969 257.140625 429.078125 258.597656 427.21875 C 260.058594 425.332031 260.78125 423.140625 260.761719 420.644531 C 260.742188 418.371094 260.09375 416.523438 258.808594 415.105469 C 257.523438 413.691406 255.839844 412.542969 253.753906 411.667969 C 251.671875 410.792969 249.421875 410.027344 247.003906 409.378906 L 238.539062 407.035156 C 233.167969 405.539062 228.90625 403.375 225.757812 400.542969 C 222.609375 397.714844 221.015625 393.992188 220.980469 389.375 C 220.953125 385.539062 221.964844 382.1875 224.019531 379.316406 C 226.097656 376.421875 228.894531 374.171875 232.410156 372.5625 C 235.949219 370.929688 239.910156 370.09375 244.289062 370.0625 C 248.707031 370.027344 252.648438 370.789062 256.097656 372.34375 C 259.550781 373.878906 262.292969 376 264.324219 378.703125 C 266.378906 381.410156 267.472656 384.488281 267.613281 387.945312 Z M 301.632812 387.683594 L 301.6875 394.371094 L 275.015625 394.578125 L 274.964844 387.886719 Z M 282.644531 375.519531 L 290.550781 375.457031 L 290.929688 424.425781 C 290.945312 426.65625 291.28125 428.328125 291.9375 429.4375 C 292.617188 430.523438 293.472656 431.253906 294.5 431.625 C 295.554688 431.972656 296.664062 432.144531 297.824219 432.132812 C 298.691406 432.128906 299.410156 432.078125 299.964844 431.984375 C 300.523438 431.867188 300.96875 431.773438 301.304688 431.707031 L 302.96875 438.785156 C 302.433594 438.988281 301.6875 439.195312 300.726562 439.402344 C 299.769531 439.632812 298.554688 439.753906 297.078125 439.765625 C 294.84375 439.785156 292.652344 439.320312 290.5 438.378906 C 288.371094 437.4375 286.59375 435.988281 285.171875 434.039062 C 283.769531 432.085938 283.058594 429.617188 283.039062 426.628906 Z M 312.039062 438.980469 L 311.640625 387.605469 L 319.28125 387.546875 L 319.339844 395.308594 L 319.878906 395.304688 C 320.796875 392.753906 322.476562 390.679688 324.921875 389.074219 C 327.367188 387.472656 330.132812 386.660156 333.210938 386.636719 C 333.792969 386.632812 334.519531 386.636719 335.390625 386.652344 C 336.261719 386.667969 336.921875 386.699219 337.367188 386.738281 L 337.429688 394.765625 C 337.160156 394.703125 336.546875 394.605469 335.585938 394.480469 C 334.644531 394.332031 333.652344 394.261719 332.601562 394.269531 C 330.097656 394.289062 327.871094 394.828125 325.914062 395.890625 C 323.976562 396.933594 322.445312 398.371094 321.324219 400.210938 C 320.21875 402.023438 319.679688 404.089844 319.695312 406.410156 L 319.945312 438.921875 Z M 365.277344 439.644531 C 360.316406 439.679688 356.03125 438.621094 352.417969 436.464844 C 348.828125 434.285156 346.042969 431.226562 344.070312 427.296875 C 342.121094 423.339844 341.121094 418.734375 341.082031 413.46875 C 341.042969 408.207031 341.96875 403.5625 343.855469 399.535156 C 345.769531 395.484375 348.449219 392.316406 351.890625 390.039062 C 355.359375 387.738281 359.417969 386.570312 364.058594 386.535156 C 366.742188 386.511719 369.390625 386.9375 372.011719 387.808594 C 374.632812 388.683594 377.023438 390.113281 379.183594 392.101562 C 381.34375 394.070312 383.070312 396.691406 384.371094 399.957031 C 385.667969 403.226562 386.335938 407.257812 386.371094 412.050781 L 386.398438 415.394531 L 346.730469 415.703125 L 346.675781 408.878906 L 378.304688 408.632812 C 378.28125 405.734375 377.683594 403.152344 376.503906 400.886719 C 375.347656 398.621094 373.699219 396.839844 371.570312 395.539062 C 369.460938 394.242188 366.976562 393.601562 364.117188 393.625 C 360.964844 393.648438 358.25 394.449219 355.960938 396.027344 C 353.691406 397.585938 351.953125 399.605469 350.746094 402.089844 C 349.535156 404.574219 348.941406 407.234375 348.964844 410.066406 L 349 414.613281 C 349.03125 418.492188 349.726562 421.777344 351.085938 424.464844 C 352.46875 427.128906 354.371094 429.15625 356.796875 430.542969 C 359.21875 431.90625 362.027344 432.574219 365.21875 432.550781 C 367.300781 432.535156 369.171875 432.230469 370.84375 431.640625 C 372.535156 431.023438 373.992188 430.121094 375.210938 428.929688 C 376.433594 427.714844 377.371094 426.214844 378.023438 424.425781 L 385.679688 426.507812 C 384.898438 429.101562 383.5625 431.382812 381.679688 433.363281 C 379.796875 435.316406 377.460938 436.851562 374.679688 437.964844 C 371.894531 439.054688 368.757812 439.617188 365.277344 439.644531 Z M 411.871094 439.417969 C 408.609375 439.441406 405.648438 438.851562 402.976562 437.644531 C 400.308594 436.417969 398.1875 434.640625 396.605469 432.308594 C 395.023438 429.957031 394.21875 427.109375 394.191406 423.765625 C 394.171875 420.820312 394.734375 418.429688 395.882812 416.59375 C 397.027344 414.734375 398.570312 413.273438 400.503906 412.210938 C 402.4375 411.148438 404.578125 410.351562 406.917969 409.820312 C 409.28125 409.265625 411.660156 408.824219 414.042969 408.492188 C 417.171875 408.066406 419.703125 407.746094 421.644531 407.53125 C 423.609375 407.292969 425.035156 406.914062 425.921875 406.394531 C 426.835938 405.875 427.285156 404.980469 427.277344 403.707031 L 427.277344 403.441406 C 427.25 400.140625 426.328125 397.582031 424.503906 395.769531 C 422.699219 393.953125 419.980469 393.058594 416.339844 393.089844 C 412.5625 393.117188 409.609375 393.964844 407.480469 395.632812 C 405.347656 397.296875 403.855469 399.070312 402.996094 400.953125 L 395.472656 398.332031 C 396.785156 395.203125 398.554688 392.757812 400.773438 391 C 403.019531 389.222656 405.46875 387.976562 408.117188 387.265625 C 410.792969 386.53125 413.425781 386.152344 416.019531 386.132812 C 417.671875 386.121094 419.570312 386.308594 421.71875 386.691406 C 423.886719 387.054688 425.980469 387.828125 428.003906 389.019531 C 430.042969 390.207031 431.742188 392.011719 433.105469 394.429688 C 434.460938 396.851562 435.15625 400.101562 435.1875 404.183594 L 435.449219 438.03125 L 427.542969 438.09375 L 427.488281 431.136719 L 427.085938 431.136719 C 426.558594 432.257812 425.675781 433.457031 424.4375 434.738281 C 423.191406 436.019531 421.539062 437.113281 419.464844 438.019531 C 417.394531 438.929688 414.863281 439.394531 411.871094 439.417969 Z M 413.023438 432.316406 C 416.152344 432.292969 418.78125 431.660156 420.917969 430.417969 C 423.074219 429.175781 424.695312 427.578125 425.769531 425.628906 C 426.875 423.679688 427.417969 421.636719 427.398438 419.496094 L 427.34375 412.269531 C 427.011719 412.675781 426.277344 413.046875 425.140625 413.390625 C 424.027344 413.710938 422.734375 414 421.257812 414.257812 C 419.8125 414.492188 418.394531 414.703125 417.011719 414.894531 C 415.648438 415.058594 414.542969 415.203125 413.695312 415.320312 C 411.644531 415.601562 409.726562 416.050781 407.941406 416.667969 C 406.183594 417.261719 404.761719 418.152344 403.675781 419.34375 C 402.609375 420.511719 402.089844 422.097656 402.101562 424.105469 C 402.125 426.847656 403.160156 428.914062 405.203125 430.304688 C 407.265625 431.671875 409.875 432.339844 413.023438 432.316406 Z M 447.996094 437.933594 L 447.597656 386.558594 L 455.238281 386.5 L 455.300781 394.527344 L 455.972656 394.523438 C 457.023438 391.773438 458.734375 389.628906 461.113281 388.09375 C 463.492188 386.535156 466.359375 385.746094 469.707031 385.71875 C 473.101562 385.695312 475.933594 386.441406 478.203125 387.960938 C 480.492188 389.460938 482.285156 391.578125 483.578125 394.308594 L 484.113281 394.304688 C 485.410156 391.640625 487.371094 389.519531 489.996094 387.9375 C 492.617188 386.335938 495.773438 385.519531 499.457031 385.492188 C 504.058594 385.457031 507.835938 386.863281 510.785156 389.71875 C 513.734375 392.550781 515.230469 396.988281 515.277344 403.03125 L 515.542969 437.414062 L 507.636719 437.476562 L 507.367188 403.089844 C 507.339844 399.300781 506.28125 396.597656 504.191406 394.988281 C 502.101562 393.375 499.648438 392.582031 496.835938 392.601562 C 493.214844 392.628906 490.421875 393.746094 488.449219 395.945312 C 486.480469 398.125 485.507812 400.875 485.53125 404.195312 L 485.789062 437.644531 L 477.75 437.707031 L 477.476562 402.519531 C 477.453125 399.597656 476.484375 397.253906 474.574219 395.484375 C 472.660156 393.691406 470.207031 392.808594 467.214844 392.832031 C 465.160156 392.847656 463.242188 393.40625 461.464844 394.515625 C 459.710938 395.621094 458.292969 397.148438 457.210938 399.097656 C 456.152344 401.023438 455.636719 403.246094 455.652344 405.765625 L 455.902344 437.875 Z M 535.492188 368.757812 L 536.019531 437.257812 L 528.113281 437.320312 L 527.582031 368.816406 Z M 548.617188 437.160156 L 548.21875 385.785156 L 556.125 385.722656 L 556.523438 437.101562 Z M 552.175781 377.191406 C 550.632812 377.203125 549.296875 376.6875 548.175781 375.648438 C 547.070312 374.609375 546.515625 373.355469 546.503906 371.882812 C 546.492188 370.410156 547.03125 369.148438 548.113281 368.089844 C 549.226562 367.035156 550.546875 366.5 552.089844 366.488281 C 553.632812 366.476562 554.953125 366.988281 556.054688 368.027344 C 557.179688 369.070312 557.75 370.324219 557.761719 371.796875 C 557.773438 373.265625 557.222656 374.53125 556.117188 375.589844 C 555.027344 376.644531 553.714844 377.179688 552.175781 377.191406 Z M 591.101562 385.453125 L 591.15625 392.144531 L 564.484375 392.347656 L 564.433594 385.660156 Z M 572.109375 373.289062 L 580.019531 373.230469 L 580.394531 422.199219 C 580.414062 424.425781 580.75 426.097656 581.40625 427.207031 C 582.085938 428.296875 582.941406 429.023438 583.96875 429.394531 C 585.023438 429.746094 586.128906 429.914062 587.289062 429.90625 C 588.164062 429.898438 588.875 429.847656 589.433594 429.753906 C 589.992188 429.640625 590.4375 429.546875 590.773438 429.476562 L 592.433594 436.554688 C 591.902344 436.761719 591.15625 436.96875 590.195312 437.175781 C 589.238281 437.40625 588.019531 437.527344 586.546875 437.539062 C 584.3125 437.554688 582.121094 437.09375 579.96875 436.148438 C 577.839844 435.207031 576.0625 433.761719 574.640625 431.808594 C 573.242188 429.855469 572.527344 427.386719 572.507812 424.398438 Z M 572.109375 373.289062" stroke-linecap="round" />
</g>
		<g transform="matrix(1.33 0 0 1.33 517.26 2.35)"  >
<path style="stroke: none; stroke-width: 1; stroke-dasharray: none; stroke-linecap: butt; stroke-dashoffset: 0; stroke-linejoin: miter; stroke-miterlimit: 4; fill: rgb(255,255,255); fill-rule: evenodd; opacity: 1;" vector-effect="non-scaling-stroke"  transform=" translate(-1116.73, -414.6)" d="M 1185.265625 389.988281 L 1185.25 389.976562 C 1185.25 389.976562 1185.242188 389.972656 1185.226562 389.972656 C 1184.839844 389.800781 1184.40625 389.710938 1183.992188 389.710938 C 1183.324219 389.714844 1182.679688 389.914062 1182.121094 390.265625 C 1181.550781 390.625 1181.066406 391.152344 1180.789062 391.8125 L 1180.789062 391.828125 L 1167.710938 427.5625 L 1157.628906 403.613281 L 1157.613281 403.601562 C 1157.328125 402.929688 1156.824219 402.414062 1156.246094 402.054688 C 1155.664062 401.691406 1154.992188 401.496094 1154.289062 401.496094 C 1153.601562 401.496094 1152.960938 401.707031 1152.398438 402.058594 C 1151.84375 402.417969 1151.339844 402.929688 1151.058594 403.601562 L 1151.050781 403.613281 L 1140.949219 427.578125 L 1127.800781 391.859375 L 1127.792969 391.859375 C 1127.5625 391.171875 1127.09375 390.632812 1126.539062 390.277344 C 1125.976562 389.914062 1125.316406 389.714844 1124.632812 389.710938 C 1124.199219 389.710938 1123.761719 389.800781 1123.34375 389.972656 L 1123.324219 389.972656 L 1123.308594 389.988281 C 1122.085938 390.558594 1121.335938 391.78125 1121.328125 393.113281 C 1121.328125 393.535156 1121.414062 393.949219 1121.574219 394.363281 L 1121.570312 394.363281 L 1137.746094 437.71875 L 1137.746094 437.734375 C 1137.871094 438.058594 1138.050781 438.378906 1138.3125 438.691406 C 1138.5 438.917969 1138.777344 439.105469 1139.066406 439.261719 C 1139.117188 439.316406 1139.203125 439.386719 1139.328125 439.464844 C 1139.464844 439.550781 1139.636719 439.609375 1139.816406 439.640625 C 1140.101562 439.734375 1140.484375 439.875 1141 439.875 C 1141.652344 439.875 1142.257812 439.640625 1142.804688 439.289062 C 1143.3125 438.949219 1143.765625 438.441406 1144.019531 437.785156 L 1144.058594 437.75 L 1154.289062 413.34375 L 1164.53125 437.652344 L 1164.542969 437.652344 C 1164.777344 438.300781 1165.1875 438.808594 1165.671875 439.167969 C 1166.179688 439.550781 1166.75 439.785156 1167.351562 439.875 L 1167.78125 439.875 C 1168.191406 439.875 1168.585938 439.796875 1168.921875 439.664062 C 1169.273438 439.53125 1169.558594 439.351562 1169.792969 439.175781 C 1170.34375 438.753906 1170.765625 438.179688 1171.027344 437.542969 L 1171.027344 437.527344 L 1187.097656 394.363281 C 1187.257812 393.949219 1187.339844 393.539062 1187.339844 393.121094 C 1187.335938 391.796875 1186.554688 390.539062 1185.265625 389.988281 Z M 1111.328125 414.742188 C 1111.328125 409.648438 1109.371094 405.039062 1106.253906 401.707031 C 1103.125 398.375 1098.882812 396.335938 1094.273438 396.335938 C 1089.667969 396.335938 1085.414062 398.375 1082.285156 401.707031 C 1079.164062 405.039062 1077.207031 409.648438 1077.207031 414.742188 C 1077.207031 419.828125 1079.164062 424.394531 1082.285156 427.703125 C 1085.414062 431.023438 1089.667969 433.03125 1094.273438 433.03125 C 1098.882812 433.03125 1103.136719 431.023438 1106.253906 427.703125 C 1109.371094 424.394531 1111.328125 419.828125 1111.328125 414.742188 Z M 1111.238281 397.066406 C 1115.566406 401.644531 1118.191406 407.929688 1118.203125 414.742188 C 1118.191406 421.550781 1115.566406 427.828125 1111.238281 432.410156 C 1106.945312 436.984375 1100.949219 439.875 1094.285156 439.875 C 1087.671875 439.875 1081.664062 436.984375 1077.355469 432.410156 C 1073.039062 427.828125 1070.371094 421.550781 1070.371094 414.742188 C 1070.371094 407.929688 1073.039062 401.644531 1077.355469 397.066406 C 1081.664062 392.496094 1087.671875 389.605469 1094.285156 389.605469 C 1100.949219 389.605469 1106.945312 392.496094 1111.238281 397.066406 Z M 1043.140625 389.695312 C 1037.777344 389.695312 1032.882812 391.78125 1029.226562 395.109375 L 1029.226562 393.121094 C 1029.222656 392.207031 1028.882812 391.351562 1028.285156 390.726562 C 1027.703125 390.109375 1026.84375 389.695312 1025.902344 389.695312 C 1024.925781 389.695312 1024.046875 390.085938 1023.4375 390.71875 C 1022.832031 391.34375 1022.472656 392.207031 1022.472656 393.121094 L 1022.472656 437.484375 L 1022.613281 437.625 L 1022.617188 437.648438 C 1022.65625 437.792969 1022.75 437.957031 1022.847656 438.113281 C 1023.316406 438.933594 1024.078125 439.554688 1025.027344 439.832031 L 1025.164062 439.875 L 1025.902344 439.875 C 1026.394531 439.875 1026.890625 439.769531 1027.363281 439.550781 C 1027.753906 439.363281 1028.121094 439.058594 1028.414062 438.671875 L 1028.425781 438.675781 C 1028.460938 438.640625 1028.472656 438.59375 1028.515625 438.558594 C 1028.53125 438.550781 1028.546875 438.535156 1028.554688 438.519531 C 1028.738281 438.285156 1028.890625 438.042969 1028.988281 437.820312 C 1029.085938 437.554688 1029.148438 437.300781 1029.195312 437.109375 L 1029.226562 436.984375 L 1029.226562 410.34375 C 1029.328125 406.535156 1030.898438 403.089844 1033.414062 400.585938 C 1035.917969 398.082031 1039.347656 396.535156 1043.140625 396.535156 C 1046.996094 396.535156 1050.433594 398.082031 1052.925781 400.585938 C 1055.429688 403.078125 1056.949219 406.519531 1056.949219 410.308594 L 1056.949219 436.464844 C 1056.949219 437.421875 1057.355469 438.304688 1057.972656 438.914062 C 1058.609375 439.519531 1059.472656 439.875 1060.375 439.875 C 1061.289062 439.875 1062.148438 439.519531 1062.777344 438.914062 C 1063.414062 438.304688 1063.804688 437.421875 1063.804688 436.464844 L 1063.804688 410.308594 C 1063.804688 399.015625 1054.566406 389.710938 1043.140625 389.695312 Z M 1380.695312 409.890625 C 1378.746094 402 1371.804688 396.382812 1363.890625 396.398438 C 1355.773438 396.398438 1348.929688 401.898438 1346.8125 409.890625 Z M 1388.195312 413.121094 L 1388.195312 413.460938 C 1388.195312 414.40625 1387.773438 415.257812 1387.128906 415.816406 C 1386.492188 416.382812 1385.660156 416.675781 1384.761719 416.683594 L 1346.332031 416.683594 C 1347.3125 426.046875 1354.796875 432.957031 1363.738281 433.03125 L 1366.007812 433.03125 C 1368.964844 433.042969 1371.84375 432.023438 1374.378906 430.332031 C 1376.917969 428.660156 1379.113281 426.324219 1380.65625 423.753906 C 1380.976562 423.203125 1381.433594 422.785156 1381.929688 422.53125 C 1382.4375 422.253906 1382.984375 422.125 1383.53125 422.125 C 1384.136719 422.125 1384.742188 422.285156 1385.269531 422.601562 L 1385.308594 422.617188 L 1385.347656 422.648438 C 1386.3125 423.355469 1386.914062 424.433594 1386.914062 425.613281 C 1386.914062 426.214844 1386.757812 426.828125 1386.425781 427.378906 L 1386.417969 427.402344 L 1386.40625 427.410156 C 1384.257812 430.820312 1381.332031 433.929688 1377.855469 436.183594 C 1374.371094 438.441406 1370.335938 439.875 1366.007812 439.875 L 1363.703125 439.875 C 1356.957031 439.828125 1350.863281 436.984375 1346.46875 432.433594 C 1342.085938 427.902344 1339.382812 421.675781 1339.382812 414.835938 C 1339.382812 407.875 1342.105469 401.5625 1346.527344 396.992188 C 1350.945312 392.429688 1357.089844 389.605469 1363.890625 389.605469 C 1370.382812 389.605469 1376.214844 392.183594 1380.535156 396.402344 C 1384.855469 400.621094 1387.679688 406.480469 1388.183594 413.074219 Z M 1230.566406 368.957031 C 1229.632812 368.957031 1228.769531 369.351562 1228.152344 369.96875 C 1227.535156 370.578125 1227.144531 371.441406 1227.144531 372.378906 L 1227.144531 436.464844 C 1227.144531 437.402344 1227.535156 438.257812 1228.152344 438.867188 C 1228.769531 439.472656 1229.632812 439.875 1230.566406 439.875 C 1232.507812 439.875 1234.078125 438.347656 1234.089844 436.464844 L 1234.089844 372.378906 C 1234.078125 370.492188 1232.507812 368.957031 1230.566406 368.957031 Z M 1006.625 413.515625 C 1003.863281 412.214844 1000.726562 411.253906 997.59375 410.21875 C 994.714844 409.246094 991.792969 408.421875 989.707031 407.332031 C 988.660156 406.773438 987.84375 406.183594 987.316406 405.519531 C 986.773438 404.855469 986.511719 404.179688 986.496094 403.261719 C 986.503906 402 986.871094 400.988281 987.488281 400.085938 C 988.425781 398.746094 989.996094 397.699219 991.714844 397.023438 C 993.410156 396.34375 995.246094 396.027344 996.5625 396.027344 C 1000.449219 396.03125 1002.902344 397.324219 1004.789062 398.660156 C 1005.71875 399.335938 1006.507812 400.019531 1007.25 400.585938 C 1007.632812 400.878906 1007.988281 401.144531 1008.402344 401.34375 C 1008.792969 401.535156 1009.253906 401.691406 1009.757812 401.691406 C 1010.078125 401.691406 1010.398438 401.636719 1010.691406 401.507812 C 1011 401.382812 1011.265625 401.207031 1011.523438 400.988281 C 1011.773438 400.753906 1011.988281 400.46875 1012.140625 400.15625 C 1012.277344 399.832031 1012.339844 399.496094 1012.339844 399.167969 C 1012.339844 398.5625 1012.144531 397.992188 1011.867188 397.457031 C 1011.351562 396.515625 1010.554688 395.617188 1009.539062 394.71875 C 1008.03125 393.382812 1006.039062 392.105469 1003.898438 391.144531 C 1001.75 390.183594 999.445312 389.527344 997.253906 389.527344 C 992.167969 389.527344 987.921875 390.679688 984.835938 392.796875 C 983.230469 393.902344 981.816406 395.117188 980.816406 396.789062 C 979.800781 398.46875 979.234375 400.539062 979.160156 403.230469 C 979.15625 403.351562 979.15625 403.46875 979.15625 403.589844 C 979.144531 406.203125 979.988281 408.359375 981.3125 410.046875 C 983.324219 412.585938 986.308594 414.109375 989.238281 415.183594 C 992.160156 416.261719 995.082031 416.90625 996.925781 417.523438 C 999.519531 418.382812 1002.28125 419.320312 1004.289062 420.558594 C 1005.292969 421.191406 1006.101562 421.871094 1006.652344 422.617188 C 1007.1875 423.386719 1007.488281 424.179688 1007.5 425.183594 L 1007.5 425.257812 C 1007.496094 426.710938 1007.066406 427.851562 1006.359375 428.828125 C 1005.292969 430.28125 1003.515625 431.347656 1001.628906 432.023438 C 999.75 432.679688 997.796875 432.957031 996.542969 432.957031 C 992.105469 432.957031 989.136719 431.890625 986.984375 430.820312 C 985.90625 430.28125 985.03125 429.75 984.242188 429.296875 C 983.847656 429.082031 983.480469 428.886719 983.09375 428.730469 C 982.714844 428.574219 982.3125 428.472656 981.859375 428.472656 C 981.582031 428.472656 981.277344 428.519531 981 428.628906 C 980.71875 428.75 980.460938 428.917969 980.246094 429.121094 C 979.945312 429.410156 979.6875 429.734375 979.503906 430.105469 C 979.324219 430.476562 979.234375 430.867188 979.234375 431.273438 C 979.234375 431.945312 979.484375 432.554688 979.84375 433.109375 C 980.402344 433.910156 981.226562 434.625 982.25 435.34375 C 983.308594 436.046875 984.570312 436.742188 986.027344 437.429688 C 989.253906 438.949219 993.390625 439.742188 996.53125 439.796875 L 996.542969 439.796875 C 1001.425781 439.796875 1005.648438 438.671875 1009.203125 436.058594 L 1009.203125 436.050781 L 1009.207031 436.050781 C 1012.683594 433.4375 1014.847656 429.554688 1014.847656 425.167969 C 1014.847656 422.757812 1014.28125 420.714844 1013.292969 419.042969 C 1011.800781 416.507812 1009.375 414.835938 1006.625 413.515625 Z M 1282.207031 414.742188 C 1282.207031 409.601562 1280.265625 404.996094 1277.160156 401.671875 C 1274.058594 398.359375 1269.800781 396.34375 1265.148438 396.335938 C 1260.527344 396.335938 1256.289062 398.359375 1253.15625 401.671875 C 1250.046875 404.996094 1248.078125 409.601562 1248.078125 414.742188 C 1248.078125 419.875 1250.046875 424.449219 1253.15625 427.746094 C 1256.273438 431.046875 1260.527344 433.03125 1265.148438 433.03125 C 1269.8125 433.03125 1274.070312 431.046875 1277.167969 427.757812 C 1280.265625 424.449219 1282.207031 419.878906 1282.207031 414.742188 Z M 1288.03125 390.558594 C 1288.664062 391.171875 1289.054688 392.054688 1289.054688 393.007812 L 1289.054688 436.464844 C 1289.054688 437.402344 1288.652344 438.257812 1288.054688 438.867188 C 1287.433594 439.472656 1286.582031 439.875 1285.636719 439.875 C 1284.695312 439.875 1283.832031 439.472656 1283.222656 438.867188 C 1282.605469 438.257812 1282.207031 437.402344 1282.207031 436.464844 L 1282.207031 432.226562 C 1277.898438 436.875 1271.84375 439.875 1265.148438 439.875 C 1258.480469 439.875 1252.480469 437.015625 1248.183594 432.433594 C 1243.867188 427.875 1241.226562 421.597656 1241.226562 414.742188 C 1241.226562 407.882812 1243.867188 401.597656 1248.183594 397.035156 C 1252.480469 392.460938 1258.480469 389.605469 1265.148438 389.605469 C 1271.839844 389.605469 1277.898438 392.519531 1282.207031 397.144531 L 1282.207031 393.007812 C 1282.207031 392.054688 1282.601562 391.171875 1283.234375 390.558594 C 1283.867188 389.957031 1284.722656 389.605469 1285.636719 389.605469 C 1286.542969 389.605469 1287.40625 389.957031 1288.03125 390.558594 Z M 1336.378906 394.964844 C 1337.058594 394.289062 1337.429688 393.394531 1337.429688 392.507812 C 1337.429688 391.636719 1337.058594 390.761719 1336.371094 390.128906 L 1336.378906 390.128906 C 1336.371094 390.109375 1336.355469 390.109375 1336.355469 390.109375 C 1336.351562 390.09375 1336.34375 390.085938 1336.34375 390.085938 L 1336.332031 390.085938 C 1335.671875 389.4375 1334.824219 389.082031 1333.949219 389.082031 C 1333.0625 389.082031 1332.199219 389.449219 1331.539062 390.109375 L 1304.765625 416.15625 L 1304.765625 372.378906 C 1304.765625 370.492188 1303.183594 368.957031 1301.242188 368.957031 C 1300.304688 368.957031 1299.445312 369.351562 1298.835938 369.96875 C 1298.226562 370.578125 1297.816406 371.441406 1297.816406 372.378906 L 1297.816406 436.464844 C 1297.816406 437.402344 1298.226562 438.257812 1298.835938 438.867188 C 1299.445312 439.472656 1300.304688 439.875 1301.242188 439.875 C 1303.183594 439.875 1304.765625 438.347656 1304.765625 436.464844 L 1304.765625 425.890625 L 1313.484375 417.195312 L 1331.257812 438.605469 C 1331.59375 439.09375 1332.046875 439.433594 1332.5 439.613281 C 1333.011719 439.804688 1333.507812 439.875 1333.953125 439.875 C 1334.566406 439.875 1335.433594 439.742188 1336.191406 439.148438 L 1336.230469 439.121094 L 1336.28125 439.074219 C 1336.988281 438.375 1337.394531 437.441406 1337.394531 436.492188 C 1337.394531 435.691406 1337.097656 434.875 1336.546875 434.222656 L 1336.546875 434.214844 L 1318.453125 412.257812 L 1336.363281 394.964844 Z M 1216.4375 369.109375 L 1215.671875 369.109375 C 1215.574219 369.109375 1215.476562 369.121094 1215.371094 369.125 C 1215.277344 369.121094 1215.175781 369.109375 1215.074219 369.109375 C 1213.101562 369.109375 1211.1875 369.335938 1209.394531 369.929688 C 1207.632812 370.515625 1206.003906 371.484375 1204.738281 372.953125 L 1204.734375 372.945312 L 1204.730469 372.953125 L 1204.730469 372.957031 C 1203.425781 374.40625 1202.566406 376.136719 1202.042969 378.101562 C 1201.519531 380.078125 1201.304688 382.304688 1201.285156 384.832031 L 1201.285156 389.734375 L 1195.875 389.734375 C 1193.996094 389.742188 1192.503906 391.242188 1192.503906 393.058594 C 1192.492188 394.035156 1192.875 394.933594 1193.492188 395.582031 C 1194.117188 396.222656 1194.96875 396.636719 1195.917969 396.691406 L 1201.285156 396.691406 L 1201.285156 436.550781 L 1201.277344 436.644531 C 1201.277344 437.578125 1201.671875 438.441406 1202.308594 439.058594 C 1202.933594 439.664062 1203.816406 440.027344 1204.773438 440.027344 C 1206.59375 440.015625 1208.089844 438.53125 1208.097656 436.644531 L 1208.097656 396.691406 L 1213.914062 396.691406 C 1214.851562 396.636719 1215.714844 396.246094 1216.332031 395.613281 C 1216.964844 394.980469 1217.355469 394.09375 1217.355469 393.128906 L 1217.355469 393 C 1217.335938 391.207031 1215.832031 389.734375 1213.949219 389.734375 L 1208.097656 389.734375 L 1208.097656 384.855469 C 1208.132812 382.695312 1208.359375 381.082031 1208.683594 379.90625 C 1208.996094 378.722656 1209.425781 377.980469 1209.8125 377.519531 C 1210.191406 377.113281 1210.683594 376.773438 1211.484375 376.5 C 1212.292969 376.242188 1213.40625 376.074219 1214.914062 376.074219 L 1215.09375 376.074219 C 1215.183594 376.074219 1215.277344 376.058594 1215.359375 376.058594 C 1215.464844 376.058594 1215.5625 376.074219 1215.671875 376.074219 L 1216.4375 376.074219 C 1218.371094 376.074219 1219.925781 374.515625 1219.925781 372.589844 C 1219.925781 370.667969 1218.371094 369.109375 1216.4375 369.109375 Z M 871.554688 417.003906 C 871.832031 416.128906 871.945312 415.230469 871.925781 414.34375 C 871.894531 413.699219 871.808594 413.058594 871.628906 412.414062 C 871.078125 410.417969 869.773438 408.632812 867.820312 407.511719 L 840.035156 391.492188 C 836.113281 389.238281 831.113281 390.578125 828.859375 394.488281 C 826.589844 398.394531 827.929688 403.378906 831.851562 405.640625 L 847.378906 414.605469 L 831.851562 423.542969 C 827.929688 425.808594 826.59375 430.792969 828.859375 434.714844 C 831.113281 438.613281 836.113281 439.945312 840.035156 437.695312 L 867.820312 421.667969 C 869.695312 420.589844 870.96875 418.902344 871.554688 417.003906 Z M 879.09375 432.011719 C 877.496094 431.875 875.835938 432.210938 874.34375 433.078125 L 846.539062 449.085938 C 842.628906 451.34375 841.292969 456.355469 843.550781 460.265625 C 845.816406 464.167969 850.8125 465.507812 854.71875 463.242188 L 870.296875 454.269531 L 870.296875 472.195312 C 870.296875 476.710938 873.957031 480.371094 878.488281 480.371094 C 882.996094 480.371094 886.664062 476.710938 886.664062 472.195312 L 886.664062 440.152344 C 886.664062 435.847656 883.324219 432.3125 879.09375 432.011719 Z M 907.570312 397.1875 C 909.160156 397.316406 910.816406 396.976562 912.308594 396.121094 L 940.109375 380.097656 C 944.027344 377.839844 945.355469 372.847656 943.101562 368.925781 C 940.847656 365.023438 935.847656 363.683594 931.933594 365.941406 L 916.367188 374.921875 L 916.367188 356.992188 C 916.367188 352.488281 912.707031 348.828125 908.175781 348.828125 C 903.648438 348.828125 899.996094 352.488281 899.996094 356.992188 L 899.996094 389.035156 C 899.996094 393.332031 903.328125 396.871094 907.570312 397.1875 Z M 846.539062 380.097656 L 874.34375 396.121094 C 875.835938 396.976562 877.496094 397.316406 879.09375 397.1875 C 883.324219 396.871094 886.664062 393.332031 886.664062 389.035156 L 886.664062 356.992188 C 886.664062 352.488281 882.996094 348.828125 878.488281 348.828125 C 873.957031 348.828125 870.296875 352.488281 870.296875 356.992188 L 870.296875 374.921875 L 854.71875 365.941406 C 850.8125 363.683594 845.816406 365.023438 843.550781 368.925781 C 841.292969 372.847656 842.628906 377.839844 846.539062 380.097656 Z M 898.792969 414.535156 C 898.792969 414.070312 898.511719 413.421875 898.179688 413.078125 L 894.835938 409.753906 C 894.503906 409.425781 893.855469 409.152344 893.390625 409.152344 L 893.257812 409.152344 C 892.792969 409.152344 892.144531 409.425781 891.820312 409.753906 L 888.472656 413.078125 C 888.136719 413.421875 887.878906 414.070312 887.878906 414.535156 L 887.878906 414.667969 C 887.878906 415.128906 888.136719 415.769531 888.472656 416.105469 L 891.820312 419.4375 C 892.148438 419.769531 892.792969 420.039062 893.257812 420.039062 L 893.390625 420.039062 C 893.855469 420.039062 894.503906 419.769531 894.835938 419.4375 L 898.179688 416.105469 C 898.511719 415.769531 898.792969 415.128906 898.792969 414.667969 Z M 908.03125 417.734375 L 896.472656 429.257812 C 896.144531 429.597656 895.503906 429.875 895.023438 429.875 L 891.625 429.875 C 891.15625 429.875 890.507812 429.597656 890.175781 429.257812 L 878.625 417.734375 C 878.292969 417.410156 878.027344 416.757812 878.027344 416.296875 L 878.027344 412.898438 C 878.027344 412.429688 878.292969 411.777344 878.625 411.445312 L 890.175781 399.925781 C 890.507812 399.585938 891.15625 399.320312 891.625 399.320312 L 895.023438 399.320312 C 895.496094 399.320312 896.144531 399.585938 896.472656 399.925781 L 908.03125 411.445312 C 908.359375 411.777344 908.628906 412.429688 908.628906 412.898438 L 908.628906 416.296875 C 908.628906 416.757812 908.359375 417.410156 908.03125 417.734375 Z M 940.109375 449.085938 L 912.308594 433.078125 C 910.816406 432.210938 909.160156 431.875 907.570312 432.011719 C 903.328125 432.3125 899.996094 435.847656 899.996094 440.152344 L 899.996094 472.195312 C 899.996094 476.710938 903.648438 480.371094 908.175781 480.371094 C 912.707031 480.371094 916.367188 476.710938 916.367188 472.195312 L 916.367188 454.269531 L 931.933594 463.242188 C 935.84375 465.507812 940.847656 464.167969 943.101562 460.265625 C 945.355469 456.355469 944.027344 451.34375 940.109375 449.085938 Z M 954.808594 405.640625 L 939.28125 414.605469 L 954.808594 423.542969 C 958.730469 425.808594 960.070312 430.792969 957.800781 434.714844 C 955.539062 438.613281 950.535156 439.945312 946.628906 437.695312 L 918.824219 421.667969 C 916.96875 420.589844 915.679688 418.902344 915.109375 417.003906 C 914.835938 416.128906 914.710938 415.230469 914.742188 414.34375 C 914.757812 413.699219 914.851562 413.058594 915.03125 412.414062 C 915.585938 410.417969 916.890625 408.636719 918.824219 407.511719 L 946.628906 391.492188 C 950.535156 389.238281 955.539062 390.578125 957.800781 394.488281 C 960.070312 398.394531 958.730469 403.378906 954.808594 405.640625 Z M 1405.707031 389.652344 C 1405.707031 394.144531 1402.695312 397.894531 1397.660156 397.894531 C 1392.664062 397.894531 1389.683594 394.109375 1389.683594 389.652344 C 1389.683594 385.15625 1392.664062 381.40625 1397.660156 381.40625 C 1402.695312 381.40625 1405.707031 385.15625 1405.707031 389.652344 Z M 1404.113281 389.652344 C 1404.113281 385.828125 1401.558594 382.929688 1397.660156 382.929688 C 1393.835938 382.929688 1391.28125 385.6875 1391.28125 389.652344 C 1391.28125 393.4375 1393.835938 396.375 1397.660156 396.375 C 1401.558594 396.375 1404.113281 393.472656 1404.113281 389.652344 Z M 1394.507812 385.9375 L 1397.945312 385.9375 C 1399.824219 385.9375 1401.0625 386.960938 1401.0625 388.554688 C 1401.0625 389.546875 1400.566406 390.289062 1399.824219 390.75 L 1401.167969 392.695312 L 1401.167969 393.082031 L 1399.222656 393.082031 L 1397.90625 391.207031 L 1396.386719 391.207031 L 1396.386719 393.082031 L 1394.507812 393.082031 Z M 1397.90625 387.671875 L 1396.386719 387.671875 L 1396.386719 389.546875 L 1397.90625 389.546875 C 1398.617188 389.546875 1399.078125 389.226562 1399.078125 388.625 C 1399.078125 387.988281 1398.652344 387.671875 1397.90625 387.671875 Z M 1397.90625 387.671875" stroke-linecap="round" />
</g>
</g>
</g>
</svg>